<svg xmlns="http://www.w3.org/2000/svg" viewBox="0 0 42.55 149.85" width="42.55" height="149.85" fill="currentColor" stroke="none">
<g transform="translate(21.275 102.3)"><g><g><path d="M 21.275000000000002 -15.000000000000002 l -10 10 l 0 -33.85 l -10 10 l 0 36.2 l 10 -9.95 l 0 33.75 l 10 -10 l 0 -36.15 z"></path><g><path d="M 11.275000000000002 -23.85 l 0 -15 l -12.6 0 l 7.5 -7.5 l -1.2 -1.2 l -18.7 18.7 l 15 0 l 0 10 q 3.85 -7.75 10 -5 z"></path></g><g><path d="M 21.275000000000002 21.15 l 0 -7.3 q -4.546 5.888 -10 3.05 l 0 11.95 l -15.05 0 l -17.5 17.5 l 1.2 1.2 l 8.7 -8.7 l 15 0 l 17.65 -17.7 z"></path></g></g></g></g>
</svg>
