<svg xmlns="http://www.w3.org/2000/svg" viewBox="0 0 75 149.85" width="75" height="149.85" fill="currentColor" stroke="none">
<g transform="translate(37.5 74.925)"><g><g><path d="M 12.5 -40 l 10 -10 l -50 0 l -10 10 l 0 30 l 30 0 l 0 30 l 10 -10 l 0 -30 l -30 0 l 0 -20 l 40 0 z"></path><g><path d="M 17.5 -40 l 12.5 12.5 l 7.5 -7.5 l -15 -15 q -8.65 2.75 -10 10 l 5 0 z"></path></g><g><path d="M 2.5 -1.1999999999999993 q -5 12.14 -10 11.2 l 0 10 l 17.5 -17.5 l -1.2 -1.2 l -6.3 6.3 l 0 -8.8 z"></path></g><path d="M -7.600000000000001 40 l 8.8 -8.8 l -1.2 -1.2 l -20 20 l 30 0 l 10 -10 l -27.6 0 z"></path></g></g></g>
</svg>
