<svg xmlns="http://www.w3.org/2000/svg" viewBox="0 0 60 149.85" width="60" height="149.85" fill="currentColor" stroke="none">
<g transform="translate(30 110.5)"><g><g><path d="M 5 -6.799999999999999 l -10 10 l 0 -33.85 l -10 10 l 0 36.2 l 10 -9.95 l 0 33.75 l 10 -10 l 0 -36.15 z"></path><g><path d="M -5 -15.649999999999999 l 0 -15 l -12.6 0 l 7.5 -7.5 l -1.2 -1.2 l -18.7 18.7 l 15 0 l 0 10 q 3.85 -7.75 10 -5 z"></path></g><g><path d="M 5 29.35 l 15 0 l 10 -10 l -17.45 0 l -7.6 7.6 l 0.05 -5.05 q -4.6 6.3 -10 4 l 0 13.45 l 9.95 -10 z"></path></g></g></g></g>
</svg>
