<svg xmlns="http://www.w3.org/2000/svg" viewBox="0 0 67.5 149.85" width="67.5" height="149.85" fill="currentColor" stroke="none">
<g transform="translate(33.75 74.925)"><g><g><path d="M -18.700000000000003 -25.65 l 34.95 0 l 10 -10 l -50 0 l -10 10 l 25 25 l 0 35 l 10 -10 l 0 -30.05 l -19.95 -19.95 z"></path><g><path d="M 6.25 -25.65 l 10 0 l 17.5 -17.5 l -1.2 -1.2 l -8.7 8.7 l -7.6 0 q 0.83 5.4 -10 10 z"></path></g><g><path d="M 21.25 34.35 l -15 0 l 10 -10 l -15 0 l 0 -10 q -3.85 7.75 -10 5 l 0 15 l 12.55 0 l -9.95 10 l 17.4 0 l 10 -10 z"></path></g></g></g></g>
</svg>
