<svg xmlns="http://www.w3.org/2000/svg" viewBox="0 0 73.8 149.85" width="73.8" height="149.85" fill="currentColor" stroke="none">
<g transform="translate(36.9 74.925)"><g><g><path d="M -20.599999999999994 -50.675000000000004 l -7.5 7.5 57.5 62.5 7.5 -7.5 -57.5 -62.5 z"></path><path d="M -26.899999999999995 -41.97500000000001 q 4.2 0.65 6.3 -2.7 q 0.8 -1 0 -6 l -6.3 6.3 l 0 -19.95 l -10 10.1 l 0 22.35 l 10 -10.1 z"></path><path d="M 29.400000000000006 19.324999999999996 l 7.5 -7.5 q -11.45 -4.9 -8.7 6.3 l -8.8 8.9 l 0 17.35 l 10 -10 l 0 -15.05 z"></path><path d="M 1.9000000000000057 29.324999999999996 l -10 10 l 0 25 l 10 -10 l 0 -25 z"></path></g></g></g>
</svg>
