<svg xmlns="http://www.w3.org/2000/svg" viewBox="0 0 57.6 149.85" width="57.6" height="149.85" fill="currentColor" stroke="none">
<g transform="translate(28.8 83)"><g><g><path d="M 18.8 11.850000000000009 l 10 -10 l 0 -36.3 l -10 10.05 l 0 -33.75 l -10 10 l 0 36.15 l 10 -10 l 0 23.85 l -30 0 l -10 10 l 40 0 z"></path><g><path d="M 18.8 -43.14999999999999 l 0 -15 l -12.6 0 l 7.5 -7.5 l -1.2 -1.2 l -18.7 18.7 l 15 0 l 0 10 q 3.85 -7.75 10 -5 z"></path></g><g><path d="M -12.5 -16.89999999999999 l -16.3 16.3 l 0 22.45 l 10 -10 l 12.6 0 q -3.5 -4 0 -10 l -5 0 l -7.6 7.65 l 0 -17.7 l 7.5 -7.5 l -1.2 -1.2 z"></path></g><path d="M -10 41.85000000000001 l 0 25 l 20 -20 l -1.2 -1.2 l -8.8 8.8 l 0 -22.6 l -10 10 z"></path></g></g></g>
</svg>
