<svg xmlns="http://www.w3.org/2000/svg" viewBox="0 0 272.8 149.925" width="272.8" height="149.925" fill="currentColor" stroke="none">
<g transform="translate(136.4 74.9625)"><g><g><path d="M -108.39999999999998 -6.937500000000009 l 7.45 -7.5 27.05 34.4 7.5 -7.5 -27.8 -36 -7.75 7.8 -26.95 -34.3 -7.5 7.5 28 35.6 z"></path><path d="M -127.74999999999997 -48.88750000000001 l 15.05 0 l 10 -10 l -17.45 0 l -8.75 8.85 q -1.75 3.2 -4.85 7.2 q 5.7 0.35 6 -6.05 z"></path><path d="M -91.39999999999998 -60.03750000000001 l 10 -10 l -30 0 l -10 10 l 30 0 z"></path></g><g><path d="M -41.34999999999998 -40.03750000000001 l 34.95 0 l 10 -10 l -50 0 l -10 10 l 25 25 l 0 35 l 10 -10 l 0 -30.05 l -19.95 -19.95 z"></path></g><g><path d="M 61.20000000000002 19.96249999999999 l 10 -10 l 0 -36.3 l -10 10.05 l 0 -33.75 l -10 10 l 0 36.15 l 10 -10 l 0 23.85 l -30 0 l -10 10 l 40 0 z"></path><g><path d="M 61.20000000000002 -35.03750000000001 l 0 -15 l -12.6 0 l 7.5 -7.5 l -1.2 -1.2 l -18.7 18.7 l 15 0 l 0 10 q 3.85 -7.75 10 -5 z"></path></g><g><path d="M 29.900000000000006 -8.787500000000009 l -16.3 16.3 l 0 22.45 l 10 -10 l 12.6 0 q -3.5 -4 0 -10 l -5 0 l -7.6 7.65 l 0 -17.7 l 7.5 -7.5 l -1.2 -1.2 z"></path></g><path d="M 32.400000000000006 49.96249999999999 l 0 25 l 20 -20 l -1.2 -1.2 l -8.8 8.8 l 0 -22.6 l -10 10 z"></path></g><g><path d="M 108.9 19.88749999999999 l 10 -10 l 0 -40 l -9.55 9.55 l -20.65 -29.4 l -7.5 7.5 l 21.6 30.85 l 6.1 -6.1 l 0 37.6 z"></path><g><path d="M 108.9 19.88749999999999 l 0 -0.1 l 0.05 0 l 9.95 -9.9 l 0 -5 q -5 5.75 -10 5 l 0 7.55 l -12.4 12.45 l 22.4 0 l 17.5 -17.5 l -1.2 -1.2 l -8.6 8.6 l -17.6 0 l -0.1 0.1 z"></path></g><path d="M 101.30000000000001 -67.4625 l 7.5 7.5 l 7.5 -7.5 l -7.5 -7.5 l -7.5 7.5 z"></path><path d="M 98.80000000000001 49.88749999999999 l 0 25 l 20 -20 l -1.2 -1.2 l -8.8 8.8 l 0 -22.6 l -10 10 z"></path></g></g></g>
</svg>
