<svg xmlns="http://www.w3.org/2000/svg" viewBox="0 0 60 149.85" width="60" height="149.85" fill="currentColor" stroke="none">
<g transform="translate(30 74.925)"><g><g><path d="M 20 -34.400000000000006 l 10 -10 l -50 0 l -10 10 l 0 30 l 30 0 l 0 30 l 10 -10 l 0 -30 l -30 0 l 0 -20 l 40 0 z"></path><g><path d="M 15 -44.400000000000006 l 15 0 l 0 15 l -10 10 l 0 -15 l -10 0 q 7.753 -3.874 5 -10 z"></path></g><g><path d="M 11.799999999999997 37.39999999999999 l -11.8 -11.8 l 10 -10 l 0 -5 q -5.188 7.964 -10 5 l 0 7.7 l -8.2 8.2 l 13 12.9 l 7 -7 z"></path></g></g></g></g>
</svg>
