<svg xmlns="http://www.w3.org/2000/svg" viewBox="0 0 112.55 149.85" width="112.55" height="149.85" fill="currentColor" stroke="none">
<g transform="translate(56.275 74.925)"><g><g><path d="M -3.2249999999999943 -4.4 l 7.45 -7.5 27.05 34.4 7.5 -7.5 -27.8 -36 -7.75 7.8 -26.95 -34.3 -7.5 7.5 28 35.6 z"></path><path d="M -31.224999999999994 -40 l -15.05 0 l -10 10 l 17.45 0 l 8.75 -8.8 q 6.9 0.2 3.8 -6.15 l -4.95 4.95 z"></path><path d="M 28.674999999999997 12.5 q -1.655 2.716 2.6 10 l 15 0 l 10 -10 l -20 0 q -7.015 -2.931 -7.6 0 z"></path><path d="M 31.375000000000014 -37.5 l -8.8 8.8 l 1.2 1.2 l 20 -20 l -30 0 l -10 10 l 27.6 0 z"></path><path d="M -11.224999999999994 40 l 7.5 7.5 l 7.5 -7.5 l -7.5 -7.5 l -7.5 7.5 z"></path></g></g></g>
</svg>
