<svg xmlns="http://www.w3.org/2000/svg" viewBox="0 0 66.35 149.85" width="66.35" height="149.85" fill="currentColor" stroke="none">
<g transform="translate(33.175 102.3)"><g><g><path d="M -18.125 -18.799999999999997 l 34.95 0 l 10 -10 l -50 0 l -10 10 l 25 25 l 0 35 l 10 -10 l 0 -30.05 l -19.95 -19.95 z"></path><g><path d="M 24.525 -28.799999999999997 l -13.35 0 q 4.7 5.2 -4.8 10 l 10.45 0 l 16.35 -16.35 q -3.25 -11.35 -12.55 -12.3 q -0.8 -0.1 -1.7 -0.1 q -0.6 0 -1.2 0.05 q 6.7 3.4 6.8 18.7 z"></path></g><g><path d="M -8.175 38.900000000000006 l 0 -13.35 q 5.2 4.7 10 -4.8 l 0 10.45 l -16.35 16.35 q -11.35 -3.25 -12.3 -12.55 q -0.1 -0.8 -0.1 -1.7 q 0 -0.6 0.05 -1.2 q 3.4 6.7 18.7 6.8 z"></path></g></g></g></g>
</svg>
