<svg xmlns="http://www.w3.org/2000/svg" viewBox="0 0 215.1 95.1" width="215.1" height="95.1" fill="currentColor" stroke="none">
<g transform="translate(107.55 47.55)"><g><g><path d="M -100.05 -28.799999999999997 l -7.5 7.5 57.5 62.5 7.5 -7.5 -57.5 -62.5 z"></path></g><g><path d="M -17.5 -18.799999999999997 l 34.95 0 l 10 -10 l -50 0 l -10 10 l 25 25 l 0 35 l 10 -10 l 0 -30.05 l -19.95 -19.95 z"></path><g><path d="M 25.14999999999999 -28.799999999999997 l -13.35 0 q 4.7 5.2 -4.8 10 l 10.45 0 l 16.35 -16.35 q -3.25 -11.35 -12.55 -12.3 q -0.8 -0.1 -1.7 -0.1 q -0.6 0 -1.2 0.05 q 6.7 3.4 6.8 18.7 z"></path></g><g><path d="M -7.549999999999997 38.900000000000006 l 0 -13.35 q 5.2 4.7 10 -4.8 l 0 10.45 l -16.35 16.35 q -11.35 -3.25 -12.3 -12.55 q -0.1 -0.8 -0.1 -1.7 q 0 -0.6 0.05 -1.2 q 3.4 6.7 18.7 6.8 z"></path></g></g><g><path d="M 87.55000000000003 -38.8 l -7.5 7.5 l 12.5 12.5 l -25 0 l -17.5 17.5 l 1.2 1.2 l 8.7 -8.7 l 37.6 0 l 10 -10 l -20 -20 z"></path><path d="M 53.800000000000026 1.2000000000000028 l -10 10 l 50 0 l 10 -10 l -50 0 z"></path></g></g></g>
</svg>
