<svg xmlns="http://www.w3.org/2000/svg" viewBox="0 0 82.5 149.85" width="82.5" height="149.85" fill="currentColor" stroke="none">
<g transform="translate(41.25 74.925)"><g><g><path d="M -33.75 -22.475 l -7.5 7.5 57.5 62.5 7.5 -7.5 -57.5 -62.5 z"></path><path d="M -33.75 -22.475 l -7.5 7.5 q 11.45 4.9 8.7 -6.3 l 8.8 -8.9 l 0 -17.35 l -10 10 l 0 15.05 z"></path><path d="M 13.649999999999999 37.525 q -1.655 2.716 2.6 10 l 15 0 l 10 -10 l -20 0 q -7.015 -2.931 -7.6 0 z"></path><path d="M 18.85 -12.475000000000001 l -8.8 8.8 l 1.2 1.2 l 20 -20 l -30 0 l -10 10 l 27.6 0 z"></path></g></g></g>
</svg>
