<svg xmlns="http://www.w3.org/2000/svg" viewBox="0 0 87.5 149.85" width="87.5" height="149.85" fill="currentColor" stroke="none">
<g transform="translate(43.75 74.925)"><g><g><path d="M -15.75 -0.6500000000000004 l 7.45 -7.5 27.05 34.4 7.5 -7.5 -27.8 -36 -7.75 7.8 -26.95 -34.3 -7.5 7.5 28 35.6 z"></path><path d="M 16.15 16.25 q -1.655 2.716 2.6 10 l 15 0 l 10 -10 l -20 0 q -7.015 -2.931 -7.6 0 z"></path><path d="M -31.25 8.75 l -10 10 l 0 25 l 10 -10 l 0 -25 z"></path><path d="M 18.85 -33.75 l -8.8 8.8 l 1.2 1.2 l 20 -20 l -30 0 l -10 10 l 27.6 0 z"></path></g></g></g>
</svg>
