<svg xmlns="http://www.w3.org/2000/svg" viewBox="0 0 55 149.85" width="55" height="149.85" fill="currentColor" stroke="none">
<g transform="translate(27.5 74.925)"><g><g><path d="M -27.5 28.124999999999993 l 10 -10 l 0 -20 l 35 0 l 10 -10 l -29.95 -29.95 l -7.5 7.5 l 22.45 22.45 l -30 0 l -10 10 l 0 30 z"></path><g><path d="M 0.14999999999999858 -31.825000000000003 q 1.655 -2.716 -2.6 -10 l -15 0 l -10 10 l 20 0 q 7.015 2.931 7.6 0 z"></path></g><g><path d="M -27.5 13.125 l 0 15 l 12.6 0 l -7.5 7.5 l 1.2 1.2 l 18.7 -18.7 l -15 0 l 0 -10 q -3.85 7.75 -10 5 z"></path></g><path d="M 10 -51.825 l 10 -10 l -30 0 l -10 10 l 30 0 z"></path><path d="M -7.5 54.325 l 7.5 7.5 l 7.5 -7.5 l -7.5 -7.5 l -7.5 7.5 z"></path></g></g></g>
</svg>
