<svg xmlns="http://www.w3.org/2000/svg" viewBox="0 0 83.1 149.85" width="83.1" height="149.85" fill="currentColor" stroke="none">
<g transform="translate(41.55 74.925)"><g><g><path d="M -16.549999999999994 -45.025000000000006 l -7.5 7.5 l 22.55 22.55 l -14.4 0 l -17.6 17.65 l 0 22.35 l 40 0 l 10 -10 l -40 0 l 0 -20 l 30 0 l 8.5 -8.5 l -31.55 -31.55 z"></path><g><path d="M -13.949999999999996 -35.025000000000006 q 1.655 -2.716 -2.6 -10 l -15 0 l -10 10 l 20 0 q 7.015 2.931 7.6 0 z"></path></g><g><path d="M 16.500000000000007 15.025000000000006 l 15.05 0 l 10 -10 l -17.45 0 l -9.95 10 l -7.6 0 q 4.95 4.2 -6.25 10 l 6.25 0 l 9.95 -10 z"></path></g><path d="M 10.000000000000007 45.025000000000006 l 10 -10 l -30 0 l -10 10 l 30 0 z"></path></g></g></g>
</svg>
