<svg xmlns="http://www.w3.org/2000/svg" viewBox="0 0 51.2 149.85" width="51.2" height="149.85" fill="currentColor" stroke="none">
<g transform="translate(25.6 109.321755)"><g><g><path d="M 4.399999999999999 -6.6166621665075045 l -10 10 l 0 -33.85 l -10 10 l 0 36.2 l 10 -9.95 l 0 33.75 l 10 -10 l 0 -36.15 z"></path><g><path d="M 6.799999999999997 -40.466662166507504 l -22.4 0 l -10 10.1 l 19.9 0 l 0.1 -0.1 l 0 0.1 l -0.05 0 l -9.95 9.9 l 0 5 q 5 -5.774 10 -5 l 0 -7.55 l 12.4 -12.4 z"></path></g><g><path d="M -5.600000000000001 23.883337833492497 l 0 15.65 l 10 -10 q 9.4 17.75 21.2 6.85 q -12.25 2.15 -14.85 -15.5 l -6.35 6.3 l 0 -8.1 q -4.8 9.5 -10 4.8 z"></path></g></g></g></g>
</svg>
