<svg xmlns="http://www.w3.org/2000/svg" viewBox="0 0 85.05 149.85" width="85.05" height="149.85" fill="currentColor" stroke="none">
<g transform="translate(42.525 89.85)"><g><g><path d="M -27.475 -20 l 34.95 0 l 10 -10 l -50 0 l -10 10 l 25 25 l 0 35 l 10 -10 l 0 -30.05 l -19.95 -19.95 z"></path><g><path d="M 17.475 -30 l 15.05 0 l 10 -10 l -17.45 0 l -9.95 10 l -7.6 0 q 4.95 4.2 -6.25 10 l 6.25 0 l 9.95 -10 z"></path></g><g><path d="M -17.525000000000002 60 l 10 -10 l 0 -20 q -7.3 -5 -10 10 l 0 20 z"></path></g><path d="M 10 -50 l 10 -10 l -30 0 l -10 10 l 30 0 z"></path></g></g></g>
</svg>
