<svg xmlns="http://www.w3.org/2000/svg" viewBox="0 0 268.65 120" width="268.65" height="120" fill="currentColor" stroke="none">
<g transform="translate(134.325 60)"><g><g><path d="M -124.32500000000002 -30 l -10 10 l 0 60 l 10 -10 l 0 -60 z"></path><g><path d="M -134.32500000000002 25 l 0 15 l 10 -10 l 0 20 l 10 -9.9 l 0 -22.4 l -10 9.95 l 0 -5.15 q -5 6.1 -10 2.5 z"></path></g></g><g><path d="M -93.07500000000002 -30 l -10 10 l 0 30 l 30 30 l 7.5 -7.5 l -27.5 -27.5 l 0 -35 z"></path><path d="M -74.32500000000002 -40 l 10 -10 l -30 0 l -10 10 l 30 0 z"></path></g><g><path d="M -31.92500000000001 -30 l -10 10 l 0 60 l 10 -10 l 0 -60 z"></path><g><path d="M -54.32500000000002 50 l 22.4 0 l 10 -10.1 l -19.9 0 l -0.1 0.1 l 0 -0.1 l 0.05 0 l 9.95 -9.9 l 0 -5 q -5 5.774 -10 5 l 0 7.55 l -12.4 12.4 z"></path></g></g><g><path d="M 3.125 -20 l 34.95 0 l 10 -10 l -50 0 l -10 10 l 25 25 l 0 35 l 10 -10 l 0 -30.05 l -19.95 -19.95 z"></path><g><path d="M 48.07499999999999 -30 l 15.05 0 l 10 -10 l -17.45 0 l -9.95 10 l -7.6 0 q 4.95 4.2 -6.25 10 l 6.25 0 l 9.95 -10 z"></path></g><g><path d="M 13.074999999999989 60 l 10 -10 l 0 -20 q -7.3 -5 -10 10 l 0 20 z"></path></g><path d="M 40.599999999999994 -50 l 10 -10 l -30 0 l -10 10 l 30 0 z"></path></g><g><path d="M 113.125 -6.15 l -10 10 l 0 -33.85 l -10 10 l 0 36.2 l 10 -9.95 l 0 33.75 l 10 -10 l 0 -36.15 z"></path><g><path d="M 115.525 -40 l -22.4 0 l -10 10.1 l 19.9 0 l 0.1 -0.1 l 0 0.1 l -0.05 0 l -9.95 9.9 l 0 5 q 5 -5.774 10 -5 l 0 -7.55 l 12.4 -12.4 z"></path></g><g><path d="M 103.125 24.35 l 0 15.65 l 10 -10 q 9.4 17.75 21.2 6.85 q -12.25 2.15 -14.85 -15.5 l -6.35 6.3 l 0 -8.1 q -4.8 9.5 -10 4.8 z"></path></g></g></g></g>
</svg>
