<svg xmlns="http://www.w3.org/2000/svg" viewBox="0 0 81.3 149.85" width="81.3" height="149.85" fill="currentColor" stroke="none">
<g transform="translate(40.65 74.925)"><g><g><path d="M 15.650000000000006 43.15 l 7.5 -7.5 -26.9 -26.9 7.45 -7.55 -28.05 -28.05 -7.5 7.5 26.9 26.9 -7.5 7.5 28.1 28.1 z"></path><path d="M -30.649999999999995 -18.150000000000002 q 6.486 1.216 4.75 -5 q -2.924 3.894 -5.95 3.8 l -8.8 8.8 l 0 15 l 10 -10 l 0 -12.6 z"></path><path d="M 13.050000000000004 33.15 q -1.65 2.7 2.6 10 l 12.6 0 l -7.5 7.5 l 1.2 1.2 l 18.7 -18.7 l -20 0 q -7 -2.95 -7.6 0 z"></path><path d="M -11.849999999999994 -44.35 l 7.5 7.5 l 7.5 -7.5 l -7.5 -7.5 l -7.5 7.5 z"></path></g></g></g>
</svg>
