<svg xmlns="http://www.w3.org/2000/svg" viewBox="0 0 51.35 149.85" width="51.35" height="149.85" fill="currentColor" stroke="none">
<g transform="translate(25.675 74.925)"><g><g><path d="M 16.875000000000004 -16.424999999999997 l -10 10 l 0 -33.85 l -10 10 l 0 36.2 l 10 -9.95 l 0 33.75 l 10 -10 l 0 -36.15 z"></path><g><path d="M -3.1249999999999964 -30.275 l 0 5 q 6.25 -9 10 -5 l 0 -7.6 l 11.8 11.7 l 7 -7 l -12.95 -12.95 l -15.85 15.85 z"></path></g><g><path d="M 16.875000000000004 19.725 l 0 -7.3 q -4.546 5.888 -10 3.05 l 0 11.95 l -15.05 0 l -17.5 17.5 l 1.2 1.2 l 8.7 -8.7 l 15 0 l 17.65 -17.7 z"></path></g></g></g></g>
</svg>
