<svg xmlns="http://www.w3.org/2000/svg" viewBox="0 0 96.3 149.85" width="96.3" height="149.85" fill="currentColor" stroke="none">
<g transform="translate(48.15 102.35)"><g><g><path d="M -11.349999999999994 -4.4 l 7.45 -7.5 27.05 34.4 7.5 -7.5 -27.8 -36 -7.75 7.8 -26.95 -34.3 -7.5 7.5 28 35.6 z"></path><path d="M -38.14999999999999 -38.8 q 6.486 1.216 4.75 -5 q -2.924 3.894 -5.95 3.8 l -8.8 8.8 l 0 15 l 10 -10 l 0 -12.6 z"></path><path d="M 20.549999999999997 12.5 q -1.655 2.716 2.6 10 l 15 0 l 10 -10 l -20 0 q -7.015 -2.931 -7.6 0 z"></path><path d="M -14.349999999999994 22.5 l 10 -10 l -30 0 l -10 10 l 30 0 z"></path><path d="M -19.349999999999994 40 l 7.5 7.5 l 7.5 -7.5 l -7.5 -7.5 l -7.5 7.5 z"></path></g></g></g>
</svg>
