<svg xmlns="http://www.w3.org/2000/svg" viewBox="0 0 93.15 149.85" width="93.15" height="149.85" fill="currentColor" stroke="none">
<g transform="translate(46.575 107.325)"><g><g><path d="M -36.675 -42.525 l -9.9 9.95 l 47.35 58.35 l 0.05 0 l 1.4 1.75 l 7.5 -7.5 l -42.7 -52.55 l 52.05 0 l 10 -10 l -65.75 0 z"></path><g><path d="M 6.675000000000004 -22.525 l 22.4 0 l 17.5 -17.5 l -1.2 -1.2 l -8.7 8.7 l -17.6 0 l 10 -10 l -12.65 0 q 5.5 3.45 -5.3 10 l 5.5 0 l -9.95 10 z"></path></g><g><path d="M 9.725000000000001 20.025000000000013 q -6.8 0.5 -7.5 7.5 l 15 15 l 15 -15 l -1.2 -1.2 l -7.5 7.5 l -13.8 -13.8 z"></path></g></g></g></g>
</svg>
