<svg xmlns="http://www.w3.org/2000/svg" viewBox="0 0 67.35 149.85" width="67.35" height="149.85" fill="currentColor" stroke="none">
<g transform="translate(33.675 92.925)"><g><g><path d="M -1.17499999999999 -56.92500000000001 l -7.5 7.5 l 22.55 22.55 l -14.4 0 l -17.6 17.65 l 0 22.35 l 40 0 l 10 -10 l -40 0 l 0 -20 l 30 0 l 8.5 -8.5 l -31.55 -31.55 z"></path><g><path d="M 1.4250000000000043 -46.92500000000001 q 1.65 -2.7 -2.6 -10 l -15 0 l -17.5 17.5 l 1.2 1.2 l 8.7 -8.7 l 17.6 0 q 7 2.95 7.6 0 z"></path></g><g><path d="M 33.675000000000004 24.925000000000004 l -11.8 -11.8 l 10 -10 l -11.15 0 q 3.75 5.2 -5.8 10 l 4.65 0 l -5.9 5.9 l 13 12.9 l 7 -7 z"></path></g><path d="M -7.499999999999993 49.425000000000004 l 7.5 7.5 l 7.5 -7.5 l -7.5 -7.5 l -7.5 7.5 z"></path></g></g></g>
</svg>
