<svg xmlns="http://www.w3.org/2000/svg" viewBox="0 0 373 138.85" width="373" height="138.85" fill="currentColor" stroke="none">
<g transform="translate(186.5 69.425)"><g><g><path d="M -176.50000000000003 -44.40000000000001 l -10 10 l 0 60 l 10 -10 l 0 -60 z"></path><g><path d="M -186.50000000000003 10.599999999999987 l 0 15 l 15 0 l 10 -10 l -15 0 l 0 -10 q -3.874 7.753 -10 5 z"></path></g></g><g><path d="M -101.50000000000003 -34.40000000000001 l 10 -10 l -50 0 l -10 10 l 0 30 l 30 0 l 0 30 l 10 -10 l 0 -30 l -30 0 l 0 -20 l 40 0 z"></path><path d="M -111.50000000000003 -54.40000000000001 l 10 -10 l -30 0 l -10 10 l 30 0 z"></path></g><g><path d="M -74.00000000000003 -44.40000000000001 l -7.5 7.5 57.5 62.5 7.5 -7.5 -57.5 -62.5 z"></path></g><g><path d="M 25.99999999999997 -44.42500000000001 l -7.5 7.5 l 22.55 22.55 l -14.4 0 l -17.6 17.65 l 0 22.35 l 40 0 l 10 -10 l -40 0 l 0 -20 l 30 0 l 8.5 -8.5 l -31.55 -31.55 z"></path><g><path d="M 28.599999999999994 -34.42500000000001 q 1.65 -2.7 -2.6 -10 l -15 0 l -17.5 17.5 l 1.2 1.2 l 8.7 -8.7 l 17.6 0 q 7 2.95 7.6 0 z"></path></g><g><path d="M 60.849999999999994 37.425000000000004 l -11.8 -11.8 l 10 -10 l -11.15 0 q 3.75 5.2 -5.8 10 l 4.65 0 l -5.9 5.9 l 13 12.9 l 7 -7 z"></path></g><path d="M 19.674999999999983 61.925000000000004 l 7.5 7.5 l 7.5 -7.5 l -7.5 -7.5 l -7.5 7.5 z"></path></g><g><path d="M 90.85 -20.55000000000001 l -10 10 l 0 -33.85 l -10 10 l 0 36.2 l 10 -9.95 l 0 33.75 l 10 -10 l 0 -36.15 z"></path><g><path d="M 84.54999999999998 41.999999999999986 l 16.3 -16.3 l 0 -22.45 l -10 10 l 0 -5.15 q -5 6.1 -10 2.5 l 0 15 l 10 -10 l 0 17.7 l -7.5 7.5 l 1.2 1.2 z"></path></g></g><g><path d="M 120.74999999999997 -44.42500000000001 l -9.9 9.95 l 47.35 58.35 l 0.05 0 l 1.4 1.75 l 7.5 -7.5 l -42.7 -52.55 l 52.05 0 l 10 -10 l -65.75 0 z"></path><path d="M 141.17499999999998 -61.92500000000001 l 7.5 7.5 l 7.5 -7.5 l -7.5 -7.5 l -7.5 7.5 z"></path><path d="M 158.67499999999998 45.625 l 10 -10 l -30 0 l -10 10 l 30 0 z"></path></g></g></g>
</svg>
