<svg xmlns="http://www.w3.org/2000/svg" viewBox="0 0 131.3 90" width="131.3" height="90" fill="currentColor" stroke="none">
<g transform="translate(65.65 45)"><g><g><path d="M -37.650000000000006 -1.9000000000000004 l 7.45 -7.5 27.05 34.4 7.5 -7.5 -27.8 -36 -7.75 7.8 -26.95 -34.3 -7.5 7.5 28 35.6 z"></path><path d="M -28.150000000000006 45 l 10 -10 l -30 0 l -10 10 l 30 0 z"></path></g><g><path d="M 24.349999999999994 -45 l -10 10 l 0 30 l 17.7 0 l -6.35 6.4 l 23.65 23.6 l 7.45 -7.5 l -22.5 -22.5 l 10.05 -10 l -20 0 l 0 -30 z"></path><g><path d="M 55.64999999999999 16.3 q -6.486 -1.216 -4.75 5 q 2.924 -3.894 5.95 -3.8 l 8.8 -8.8 l 0 -15 l -10 10 l 0 12.6 z"></path></g></g></g></g>
</svg>
